<?xml version="1.0" encoding="utf-8"?>
<!-- Generator: Adobe Illustrator 24.3.0, SVG Export Plug-In . SVG Version: 6.00 Build 0)  -->
<!DOCTYPE svg PUBLIC "-//W3C//DTD SVG 1.1//EN" "http://www.w3.org/Graphics/SVG/1.1/DTD/svg11.dtd" [
	<!ENTITY ns_extend "http://ns.adobe.com/Extensibility/1.0/">
	<!ENTITY ns_ai "http://ns.adobe.com/AdobeIllustrator/10.0/">
	<!ENTITY ns_graphs "http://ns.adobe.com/Graphs/1.0/">
	<!ENTITY ns_vars "http://ns.adobe.com/Variables/1.0/">
	<!ENTITY ns_imrep "http://ns.adobe.com/ImageReplacement/1.0/">
	<!ENTITY ns_sfw "http://ns.adobe.com/SaveForWeb/1.0/">
	<!ENTITY ns_custom "http://ns.adobe.com/GenericCustomNamespace/1.0/">
	<!ENTITY ns_adobe_xpath "http://ns.adobe.com/XPath/1.0/">
]>
<svg version="1.1" id="Capa_1" xmlns:x="&ns_extend;" xmlns:i="&ns_ai;" xmlns:graph="&ns_graphs;"
	 xmlns="http://www.w3.org/2000/svg" xmlns:xlink="http://www.w3.org/1999/xlink" x="0px" y="0px" width="378.7px" height="65px"
	 viewBox="0 0 378.7 65" style="enable-background:new 0 0 378.7 65;" xml:space="preserve">
<style type="text/css">
	.st0{fill:#222221;}
</style>
<metadata>
	<sfw  xmlns="&ns_sfw;">
		<slices></slices>
		<sliceSourceBounds  bottomLeftOrigin="true" height="65" width="378.7" x="0" y="0"></sliceSourceBounds>
	</sfw>
</metadata>
<g>
	<g>
		<g>
			<g>
				<polygon class="st0" points="70.9,0 79.8,0 79.8,6.9 70.9,6.9 				"/>
				<polygon class="st0" points="70.9,15.2 79.8,15.2 79.8,22.1 70.9,22.1 				"/>
				<polygon class="st0" points="70.9,30.4 79.8,30.4 79.8,37.3 70.9,37.3 				"/>
				<polygon class="st0" points="70.9,45.6 79.8,45.6 79.8,52.5 70.9,52.5 				"/>
			</g>
			<g>
				<path class="st0" d="M0.1,0h67.4v34.5C56.2,9.3,19.7,1.8,0.1,23.5V0L0.1,0z"/>
				<path class="st0" d="M0.2,52.4h21.9C7.5,45.1,8,29,18.5,21.1C12.4,22.7,6.3,25,0.2,29L0.2,52.4L0.2,52.4z"/>
				<path class="st0" d="M40.3,21.3c9.8,7.3,10.2,24.8-4.2,30.9c11.4-2.1,21.9-6.5,31.3-15.1l0-1.4C58.9,28.4,49.7,24.3,40.3,21.3
					L40.3,21.3z"/>
			</g>
		</g>
		<g>
			<path class="st0" d="M0,58.2v-0.1c0-0.6,0.3-1.2,0.9-1.6c0.6-0.4,1.4-0.7,2.2-0.7h11.7v2.3c0,0,0,0.1-0.1,0.1
				C14.5,58.2,0,58.2,0,58.2z M14.7,62.5v2.4H3.1c-0.8,0-1.6-0.2-2.2-0.7C0.3,63.8,0,63.4,0,62.7v-3.5c0,0,14.5,0,14.6,0
				s0.1,0.1,0.1,0.1v1.9c0,0,0,0.1-0.1,0.1c-0.1,0-11.9,0-12.1,0c-0.1,0-0.1,0.1-0.1,0.1v0.8c0,0,0,0.1,0.1,0.1c0.1,0,10.6,0,12,0
				C14.7,62.4,14.7,62.5,14.7,62.5z"/>
			<path class="st0" d="M28.8,62.4v-3.1v-3.5c0,0,2.2,0,2.3,0c0.1,0,0.1,0.1,0.1,0.1v6.7v2.2c0,0,0,0.1-0.1,0.1s-2.2,0-2.2,0
				l-10-6.7c0,0-2.2,0-2.3,0c-0.1,0-0.1-0.1-0.1-0.1v-2.3h2.4L28.8,62.4z M16.5,59.3c-0.1,0-0.1,0.1-0.1,0.1v5.5h2.3v-3.3v-2.1
				c0,0,0-0.1-0.1-0.1C18.5,59.3,16.6,59.3,16.5,59.3z"/>
			<path class="st0" d="M58.2,61.4h-6.6v1v2.4c0,0,0,0.1-0.1,0.1c-0.1,0-2.2,0-2.2,0v-2.3c0,0,0-3.2,0-3.3s0.2-0.1,0.2-0.1
				s11.9,0,12,0s0.1-0.1,0.1-0.1s0-0.7,0-0.8s-0.1-0.1-0.1-0.1s-11.9,0-12,0c-0.1,0-0.1-0.1-0.1-0.1v-2.3h2.9l8.8,0
				c0.8,0,1.5,0.2,2.1,0.6c0.6,0.4,0.8,1,0.8,1.8v1c0,0.8-0.2,1.3-0.7,1.7c-0.5,0.3-1.5,0.5-2.4,0.5l3,3.5h-2.6L58.2,61.4z"/>
			<path class="st0" d="M78.3,62.4c0,0,1.6,0,1.8,0c0.2,0,0.2,0.1,0.2,0.1v2.4h-2.9h-8.8c-0.8,0-1.5-0.2-2.1-0.7
				c-0.6-0.4-0.9-1-0.9-1.6v-4.6c0-0.6,0.3-1.2,0.9-1.6c0.6-0.4,1.3-0.7,2.1-0.7l8.8,0l2.9,0v2.3c0,0-0.1,0.1-0.2,0.1
				s-10.2,0-10.2,0c-0.6,0-1,0-1.4,0.2c-0.4,0.2-0.6,0.5-0.6,0.9v2c0,0.3,0.2,0.6,0.6,0.9s0.8,0.3,1.4,0.3H76L78.3,62.4L78.3,62.4
				L78.3,62.4z"/>
			<path class="st0" d="M32.8,58.2v-0.1c0-0.6,0.3-1.2,0.9-1.6c0.6-0.4,1.4-0.7,2.2-0.7h11.7v2.3c0,0,0,0.1-0.1,0.1
				C47.3,58.2,32.8,58.2,32.8,58.2z M47.5,62.5v2.4H35.9c-0.8,0-1.6-0.2-2.2-0.7c-0.6-0.4-0.9-0.9-0.9-1.5v-3.5c0,0,14.5,0,14.6,0
				c0.1,0,0.1,0.1,0.1,0.1v1.9c0,0,0,0.1-0.1,0.1s-11.9,0-12.1,0s-0.1,0.1-0.1,0.1v0.8c0,0,0,0.1,0.1,0.1c0.1,0,10.6,0,12,0
				C47.5,62.4,47.5,62.5,47.5,62.5z"/>
		</g>
	</g>
	<g>
		<path class="st0" d="M90.9,26.2h7.7v1.1h-6.2V30h5.7v1.1h-5.7v3h6.3v1.1h-7.8C90.9,35.3,90.9,26.2,90.9,26.2z"/>
		<path class="st0" d="M102.3,32.3c0,1.3,1.1,2.2,2.8,2.2c1.7,0,2.7-0.7,2.7-1.7c0-1.1-1-1.2-2.9-1.6c-2.4-0.5-3.6-0.9-3.6-2.5
			c0-1.6,1.5-2.7,3.8-2.7c2.4,0,3.8,1.1,3.8,2.9h-1.4c-0.1-1.2-1-1.9-2.5-1.9c-1.5,0-2.4,0.6-2.4,1.5c0,1.2,1,1.2,3.3,1.7
			c1,0.2,1.9,0.4,2.5,0.8c0.6,0.4,0.9,1,0.9,1.7c0,1.7-1.6,2.9-4.1,2.9c-2.6,0-4.1-1.2-4.2-3.2H102.3z"/>
		<path class="st0" d="M120.9,31.9c-0.1,2.2-1.9,3.6-4.6,3.6c-3,0-4.8-1.8-4.8-4.9c0-2.8,1.9-4.6,5-4.6c2.5,0,4.1,1.1,4.3,3h-1.4
			c-0.3-1.2-1.3-1.9-3-1.9c-2.2,0-3.4,1.3-3.4,3.7c0,2.2,1.4,3.7,3.4,3.7c1.8,0,3-1,3.1-2.5C119.5,31.9,120.9,31.9,120.9,31.9z"/>
		<path class="st0" d="M123.5,26.2h1.5v5.6c0,1.7,0.9,2.5,2.7,2.5c1.9,0,2.8-0.8,2.8-2.5v-5.6h1.5v5.6c0,2.4-1.5,3.7-4.4,3.7
			c-2.7,0-4-1.2-4-3.7V26.2z"/>
		<path class="st0" d="M135.1,26.2h7.7v1.1h-6.2V30h5.7v1.1h-5.7v3h6.3v1.1h-7.8V26.2z"/>
		<path class="st0" d="M145.5,26.2h1.5v7.9h5.4v1.1h-6.8V26.2z"/>
		<path class="st0" d="M157.3,26.2h1.6l4,9.1h-1.6l-1.1-2.7h-4.2l-1.2,2.7h-1.5L157.3,26.2z M159.7,31.5l-1.7-4l-1.7,4
			C156.4,31.5,159.7,31.5,159.7,31.5z"/>
		<path class="st0" d="M169.9,26.2h1.6l5,6.6c0.2,0.3,0.4,0.5,0.5,0.8v-7.4h1.4v9.1h-1.6l-5.1-6.7c-0.1-0.2-0.3-0.4-0.4-0.7v7.4
			h-1.4L169.9,26.2L169.9,26.2z"/>
		<path class="st0" d="M184.4,26.2h1.6l4,9.1h-1.6l-1.1-2.7h-4.2l-1.2,2.7h-1.5L184.4,26.2z M186.9,31.5l-1.7-4l-1.7,4
			C183.6,31.5,186.9,31.5,186.9,31.5z"/>
		<path class="st0" d="M201,31.9c-0.1,2.2-1.9,3.6-4.6,3.6c-3,0-4.8-1.8-4.8-4.9c0-2.8,1.9-4.6,5-4.6c2.5,0,4.1,1.1,4.3,3h-1.4
			c-0.3-1.2-1.3-1.9-3-1.9c-2.2,0-3.4,1.3-3.4,3.7c0,2.2,1.4,3.7,3.4,3.7c1.8,0,3-1,3.1-2.5C199.6,31.9,201,31.9,201,31.9z"/>
		<path class="st0" d="M203.7,26.2h1.5v9.1h-1.5V26.2z"/>
		<path class="st0" d="M213.1,25.9c3.2,0,5.1,1.8,5.1,4.8s-1.9,4.8-5.1,4.8c-3.2,0-5.1-1.8-5.1-4.8S209.9,25.9,213.1,25.9z
			 M213.1,34.4c2.2,0,3.6-1.4,3.6-3.7s-1.4-3.7-3.6-3.7c-2.2,0-3.6,1.4-3.6,3.7S210.9,34.4,213.1,34.4z"/>
		<path class="st0" d="M220.9,26.2h1.6l5,6.6c0.2,0.3,0.4,0.5,0.5,0.8v-7.4h1.4v9.1h-1.6l-5.1-6.7c-0.1-0.2-0.3-0.4-0.4-0.7v7.4
			h-1.4L220.9,26.2L220.9,26.2z"/>
		<path class="st0" d="M235.4,26.2h1.6l4,9.1h-1.6l-1.1-2.7h-4.2l-1.2,2.7h-1.5L235.4,26.2z M237.9,31.5l-1.7-4l-1.7,4
			C234.6,31.5,237.9,31.5,237.9,31.5z"/>
		<path class="st0" d="M243.1,26.2h1.5v7.9h5.4v1.1h-6.8V26.2z"/>
		<path class="st0" d="M90.9,40.9H95c3,0,4.6,1.6,4.6,4.4c0,3-1.8,4.7-4.7,4.7h-4V40.9z M92.4,42v6.9h2.5c2.1,0,3.3-1.2,3.3-3.5
			c0-2.2-1.2-3.4-3.3-3.4H92.4z"/>
		<path class="st0" d="M102.4,40.9h7.7V42h-6.2v2.7h5.7v1.1h-5.7v3h6.3V50h-7.8C102.4,50,102.4,40.9,102.4,40.9z"/>
		<path class="st0" d="M117.3,40.9h7.7V42h-6.2v2.7h5.7v1.1h-5.7v3h6.3V50h-7.8C117.3,50,117.3,40.9,117.3,40.9z"/>
		<path class="st0" d="M129.7,45.4l-3.5-4.4h1.8l2.6,3.4l2.6-3.4h1.7l-3.5,4.4L135,50h-1.8l-2.8-3.7l-2.7,3.7H126L129.7,45.4z"/>
		<path class="st0" d="M136.5,40.9h3.6c0.1,0,0.3,0,0.4,0c0.9,0,1.7,0,2.4,0.3c0.9,0.4,1.4,1.2,1.4,2.3c0,1-0.5,1.8-1.4,2.3
			c-0.7,0.4-1.5,0.4-2.6,0.4h-2.2V50h-1.5L136.5,40.9L136.5,40.9z M140.4,45.1c1.6,0,2.3-0.3,2.3-1.5c0-1.1-0.7-1.5-2.2-1.5h-2.6v3
			H140.4z"/>
		<path class="st0" d="M146.2,40.9h7.7V42h-6.2v2.7h5.7v1.1h-5.7v3h6.3V50h-7.8V40.9z"/>
		<path class="st0" d="M160.2,40.9c0.9,0,1.7,0,2.3,0.3c0.9,0.4,1.4,1.2,1.4,2.2c0,1-0.5,1.7-1.5,2.1c0.9,0.2,1.2,0.7,1.2,1.7
			l0.1,1.5c0,0.6,0.1,0.9,0.5,1.1V50h-1.7c-0.2-0.3-0.2-0.7-0.3-1.2l-0.1-1.2c-0.1-1.4-0.5-1.5-2.4-1.5h-2.4V50H156v-9.1
			C156,40.9,160.2,40.9,160.2,40.9z M157.5,45.1h2.5c1.7,0,2.5-0.4,2.5-1.6S161.6,42,160,42h-2.5V45.1z"/>
		<path class="st0" d="M166.3,40.9h1.5V50h-1.5V40.9z"/>
		<path class="st0" d="M171.7,50h-1.3v-9.1h2.1l2.7,6.9c0.1,0.3,0.2,0.5,0.3,0.7c0.1-0.3,0.1-0.5,0.2-0.7l2.8-6.9h2.1V50h-1.4v-7.7
			c-0.1,0.3-0.2,0.6-0.3,0.8l-2.8,6.9h-1.4l-2.7-6.9c-0.1-0.3-0.2-0.5-0.2-0.8L171.7,50L171.7,50z"/>
		<path class="st0" d="M183.3,40.9h7.7V42h-6.2v2.7h5.7v1.1h-5.7v3h6.3V50h-7.8V40.9z"/>
		<path class="st0" d="M193.3,40.9h1.6l5,6.6c0.2,0.3,0.4,0.5,0.5,0.8v-7.4h1.4V50h-1.6l-5.1-6.7c-0.1-0.2-0.3-0.4-0.4-0.7V50h-1.4
			L193.3,40.9L193.3,40.9z"/>
		<path class="st0" d="M206.9,42h-3.4v-1.1h8.2V42h-3.4v8h-1.5L206.9,42L206.9,42z"/>
		<path class="st0" d="M215.8,40.9h1.6l4,9.1h-1.6l-1.1-2.7h-4.2l-1.2,2.7h-1.5L215.8,40.9z M218.2,46.2l-1.7-4l-1.7,4H218.2z"/>
		<path class="st0" d="M231.9,46.6c-0.1,2.2-1.9,3.6-4.6,3.6c-3,0-4.8-1.8-4.8-4.9c0-2.8,1.9-4.6,5-4.6c2.5,0,4.1,1.2,4.3,3h-1.4
			c-0.3-1.2-1.3-1.9-3-1.9c-2.2,0-3.4,1.3-3.4,3.7c0,2.2,1.4,3.7,3.4,3.7c1.8,0,3-1,3.1-2.5H231.9z"/>
		<path class="st0" d="M234.1,40.9h1.5V50h-1.5V40.9z"/>
		<path class="st0" d="M243,40.7c3.2,0,5.1,1.8,5.1,4.8s-1.9,4.8-5.1,4.8c-3.2,0-5.1-1.8-5.1-4.8C237.9,42.4,239.9,40.7,243,40.7z
			 M243,49.2c2.2,0,3.6-1.4,3.6-3.7c0-2.4-1.4-3.7-3.6-3.7c-2.2,0-3.6,1.4-3.6,3.7S240.8,49.2,243,49.2z M243.5,38h1.5l-2.1,2.1H242
			L243.5,38z"/>
		<path class="st0" d="M250.4,40.9h1.6l5,6.6c0.2,0.3,0.4,0.5,0.5,0.8v-7.4h1.4V50h-1.6l-5.1-6.7c-0.1-0.2-0.3-0.4-0.4-0.7V50h-1.4
			L250.4,40.9L250.4,40.9z"/>
		<path class="st0" d="M268.9,50v-3.6l-4-5.4h1.8l2.9,4.3l2.9-4.3h1.7l-3.8,5.4V50L268.9,50L268.9,50z"/>
		<path class="st0" d="M284.4,40.9c0.9,0,1.7,0,2.3,0.3c0.9,0.4,1.4,1.2,1.4,2.2c0,1-0.5,1.7-1.5,2.1c0.9,0.2,1.2,0.7,1.2,1.7
			l0.1,1.5c0,0.6,0.1,0.9,0.5,1.1V50h-1.7c-0.2-0.3-0.2-0.7-0.3-1.2l-0.1-1.2c-0.1-1.4-0.5-1.5-2.4-1.5h-2.4V50h-1.5v-9.1
			C280.2,40.9,284.4,40.9,284.4,40.9z M281.7,45.1h2.5c1.7,0,2.5-0.4,2.5-1.6s-0.8-1.5-2.5-1.5h-2.5V45.1z"/>
		<path class="st0" d="M290.6,40.9h7.7V42h-6.2v2.7h5.7v1.1h-5.7v3h6.3V50h-7.8L290.6,40.9L290.6,40.9z"/>
		<path class="st0" d="M303.4,40.9h1.6l4,9.1h-1.6l-1.1-2.7h-4.2L301,50h-1.5L303.4,40.9z M305.9,46.2l-1.7-4l-1.7,4H305.9z"/>
		<path class="st0" d="M310.6,40.9h1.5v7.9h5.4V50h-6.8V40.9z"/>
		<path class="st0" d="M319.1,40.9h1.5V50h-1.5V40.9z"/>
		<path class="st0" d="M322.7,49l6.6-7h-6.1v-1.1h7.8v1.1l-6.4,6.8h6.4V50h-8.3L322.7,49C322.7,49,322.7,49,322.7,49z"/>
		<path class="st0" d="M335.6,40.9h1.6l4,9.1h-1.6l-1.1-2.7h-4.2l-1.2,2.7h-1.5L335.6,40.9z M338.1,46.2l-1.7-4l-1.7,4H338.1z"/>
		<path class="st0" d="M351.7,46.6c-0.1,2.2-1.9,3.6-4.6,3.6c-3,0-4.8-1.8-4.8-4.9c0-2.8,1.9-4.6,5-4.6c2.5,0,4.1,1.2,4.3,3h-1.4
			c-0.3-1.2-1.3-1.9-3-1.9c-2.2,0-3.4,1.3-3.4,3.7c0,2.2,1.4,3.7,3.4,3.7c1.8,0,3-1,3.1-2.5H351.7z"/>
		<path class="st0" d="M353.9,40.9h1.5V50h-1.5V40.9z"/>
		<path class="st0" d="M362.9,40.7c3.2,0,5.1,1.8,5.1,4.8s-1.9,4.8-5.1,4.8c-3.2,0-5.1-1.8-5.1-4.8
			C357.8,42.4,359.7,40.7,362.9,40.7z M362.9,49.2c2.2,0,3.6-1.4,3.6-3.7c0-2.4-1.4-3.7-3.6-3.7c-2.2,0-3.6,1.4-3.6,3.7
			C359.3,47.8,360.6,49.2,362.9,49.2z M363.3,38h1.5l-2.1,2.1h-0.9L363.3,38z"/>
		<path class="st0" d="M370.2,40.9h1.6l5,6.6c0.2,0.3,0.4,0.5,0.5,0.8v-7.4h1.4V50h-1.6l-5.1-6.7c-0.1-0.2-0.3-0.4-0.4-0.7V50h-1.4
			L370.2,40.9L370.2,40.9z"/>
		<path class="st0" d="M99.8,61.4c-0.1,2.2-1.9,3.6-4.6,3.6c-3,0-4.8-1.8-4.8-4.9c0-2.8,1.9-4.6,5-4.6c2.5,0,4.1,1.2,4.3,3h-1.4
			c-0.3-1.2-1.3-1.9-3-1.9c-2.2,0-3.4,1.3-3.4,3.7c0,2.2,1.4,3.7,3.4,3.7c1.8,0,3-1,3.1-2.5C98.4,61.4,99.8,61.4,99.8,61.4z"/>
		<path class="st0" d="M102.5,55.7h1.5v9.1h-1.5V55.7z"/>
		<path class="st0" d="M107.2,55.7h1.6l5,6.6c0.2,0.3,0.4,0.5,0.5,0.8v-7.4h1.4v9.1h-1.6l-5.1-6.7c-0.2-0.2-0.3-0.4-0.4-0.7v7.4
			h-1.4L107.2,55.7L107.2,55.7z"/>
		<path class="st0" d="M119,55.7h7.7v1.1h-6.2v2.7h5.7v1.1h-5.7v3h6.3v1.1H119C119,64.7,119,55.7,119,55.7z"/>
		<path class="st0" d="M130.8,64.7h-1.3v-9.1h2.1l2.7,6.9c0.1,0.3,0.2,0.5,0.3,0.7c0.1-0.3,0.1-0.5,0.2-0.7l2.8-6.9h2.1v9.1h-1.4V57
			c-0.1,0.3-0.2,0.6-0.3,0.8l-2.8,6.9h-1.4l-2.7-6.9c-0.1-0.3-0.2-0.5-0.2-0.8L130.8,64.7L130.8,64.7z"/>
		<path class="st0" d="M145.6,55.7h1.6l4,9.1h-1.6l-1.1-2.7h-4.2l-1.2,2.7h-1.5L145.6,55.7z M148,61l-1.7-4l-1.7,4H148z"/>
		<path class="st0" d="M155,56.8h-3.4v-1.1h8.2v1.1h-3.4v8H155L155,56.8L155,56.8z"/>
		<path class="st0" d="M166.8,55.4c3.2,0,5.1,1.8,5.1,4.8c0,3-1.9,4.8-5.1,4.8c-3.2,0-5.1-1.8-5.1-4.8
			C161.7,57.2,163.6,55.4,166.8,55.4z M166.8,63.9c2.2,0,3.6-1.4,3.6-3.7c0-2.4-1.4-3.7-3.6-3.7c-2.2,0-3.6,1.4-3.6,3.7
			C163.2,62.6,164.5,63.9,166.8,63.9z"/>
		<path class="st0" d="M179,65c-2.8,0-4.9-1.9-4.9-4.8c0-3,2-4.8,5.2-4.8c2.5,0,4.1,1.1,4.4,3h-1.4c-0.3-1.2-1.3-1.9-3-1.9
			c-2.3,0-3.7,1.3-3.7,3.7c0,2.4,1.4,3.7,3.6,3.7c2,0,3.3-1.1,3.3-2.9c0,0,0-0.1,0-0.1h-3.4v-1h4.7v4.9h-1l-0.3-1.2
			C181.8,64.5,180.6,65,179,65z"/>
		<path class="st0" d="M191.1,55.7c0.9,0,1.7,0,2.3,0.3c0.9,0.4,1.4,1.2,1.4,2.2c0,1-0.5,1.7-1.5,2.1c0.9,0.2,1.2,0.7,1.2,1.7
			l0.1,1.5c0,0.6,0.1,0.9,0.5,1.1v0.3h-1.7c-0.2-0.3-0.2-0.7-0.3-1.2l-0.1-1.2c-0.1-1.4-0.5-1.5-2.4-1.5h-2.4v3.9H187v-9.1H191.1z
			 M188.4,59.8h2.5c1.7,0,2.5-0.4,2.5-1.6s-0.8-1.5-2.5-1.5h-2.5V59.8z"/>
		<path class="st0" d="M200.6,55.7h1.6l4,9.1h-1.6l-1.1-2.7h-4.2l-1.2,2.7h-1.5L200.6,55.7z M203.1,61l-1.7-4l-1.7,4H203.1z
			 M201.9,52.7h1.5l-2.1,2.1h-0.9L201.9,52.7z"/>
		<path class="st0" d="M208.3,55.7h7.2v1.1h-5.8v2.7h5v1.1h-5v4.1h-1.5V55.7z"/>
		<path class="st0" d="M217.9,55.7h1.5v9.1h-1.5V55.7z"/>
		<path class="st0" d="M231.6,61.4c-0.1,2.2-1.9,3.6-4.6,3.6c-3,0-4.8-1.8-4.8-4.9c0-2.8,1.9-4.6,5-4.6c2.5,0,4.1,1.2,4.3,3h-1.4
			c-0.3-1.2-1.3-1.9-3-1.9c-2.2,0-3.4,1.3-3.4,3.7c0,2.2,1.4,3.7,3.4,3.7c1.8,0,3-1,3.1-2.5C230.2,61.4,231.6,61.4,231.6,61.4z"/>
		<path class="st0" d="M237.1,55.7h1.6l4,9.1h-1.6L240,62h-4.2l-1.2,2.7h-1.5L237.1,55.7z M239.5,61l-1.7-4l-1.7,4H239.5z"/>
	</g>
</g>
</svg>
