<?xml version="1.0" encoding="utf-8"?>
<!-- Generator: Adobe Illustrator 15.1.0, SVG Export Plug-In . SVG Version: 6.00 Build 0)  -->
<!DOCTYPE svg PUBLIC "-//W3C//DTD SVG 1.1//EN" "http://www.w3.org/Graphics/SVG/1.1/DTD/svg11.dtd">
<svg version="1.1" id="Capa_1" xmlns="http://www.w3.org/2000/svg" xmlns:xlink="http://www.w3.org/1999/xlink" x="0px" y="0px"
	 width="223.14px" height="68.577px" viewBox="0 0 223.14 68.577" enable-background="new 0 0 223.14 68.577" xml:space="preserve">
<g>
	<g>
		<path fill="#FFFFFF" d="M66.828,27.833C63.682,9.516,46.151-2.733,27.833,0.525C9.515,3.672-2.733,21.203,0.525,39.521
			c3.259,18.318,20.678,30.567,38.996,27.308C57.838,63.683,70.087,46.151,66.828,27.833z M58.625,51.208
			c-4.72,6.63-11.687,11.126-19.666,12.586c-7.979,1.461-16.071-0.337-22.813-5.057C9.515,54.017,5.02,47.05,3.672,38.959
			c-1.46-7.979,0.337-16.071,5.058-22.813c4.72-6.63,11.687-11.125,19.666-12.586c7.979-1.349,16.07,0.449,22.813,5.169
			c6.631,4.72,11.125,11.688,12.586,19.667C65.143,36.375,63.345,44.466,58.625,51.208z"/>
		<path fill="#FFFFFF" d="M39.296,24.687l-4.382,0.786c-0.113,0-0.225,0.113-0.113,0.225l1.011,5.956l-10.339-4.945
			c-0.112,0-0.112,0-0.224,0c0,0-0.113,0.112-0.113,0.224l2.697,15.396c0,0.113,0.113,0.225,0.225,0.113l4.383-0.787
			c0.112,0,0.224-0.113,0.112-0.225l-1.124-6.405l10.451,5.394h0.112h0.112c0,0,0.113-0.112,0.113-0.225L39.52,24.687
			C39.408,24.799,39.296,24.687,39.296,24.687z"/>
		<path fill="#FFFFFF" d="M22.888,27.833c0-0.112-0.112-0.225-0.224-0.112l-4.383,0.787c-0.112,0-0.225,0.112-0.112,0.225
			l1.461,8.315c0.225,1.574-0.45,2.697-1.911,3.034c-1.461,0.226-2.584-0.562-2.81-2.135l-1.46-8.316
			c0-0.113-0.112-0.225-0.225-0.113l-4.383,0.787c-0.112,0-0.225,0.113-0.112,0.225l1.573,8.99c0.674,4.045,3.934,6.181,8.316,5.395
			c4.271-0.787,6.631-3.821,5.956-7.867L22.888,27.833z"/>
		<path fill="#FFFFFF" d="M48.848,22.664c-4.271,0.787-6.63,3.821-5.844,7.979l1.573,8.991c0,0.112,0.113,0.225,0.225,0.112
			l4.383-0.786c0.112,0,0.224-0.113,0.112-0.225l-0.562-2.922l4.72-0.787l0.562,2.921c0,0.113,0.113,0.225,0.225,0.113l4.382-0.787
			c0.113,0,0.225-0.112,0.113-0.224l-1.574-8.991C56.377,24.013,53.118,21.878,48.848,22.664z M47.949,31.767l-0.337-1.911
			c-0.225-1.574,0.449-2.697,1.91-3.034c1.461-0.225,2.584,0.562,2.81,2.135l0.337,1.911L47.949,31.767z"/>
	</g>
	<g>
		<g>
			<path fill="#FFFFFF" d="M81.438,22.439v6.068c0,0.674-0.113,1.236-0.45,1.798c-0.337,0.45-0.674,0.899-1.236,1.124
				c-0.562,0.225-1.236,0.337-1.911,0.337c-1.124,0-2.022-0.337-2.697-0.899c-0.674-0.562-1.011-1.349-1.011-2.36v-6.068h2.248
				v6.068c0,1.011,0.449,1.46,1.348,1.46c0.449,0,0.787-0.112,1.012-0.336c0.224-0.225,0.337-0.674,0.337-1.237v-5.956
				L81.438,22.439L81.438,22.439z"/>
			<path fill="#FFFFFF" d="M90.428,31.654H88.18l-3.259-5.731v5.731h-2.248v-9.215h2.248l3.259,5.731v-5.731h2.248V31.654z"/>
			<path fill="#FFFFFF" d="M94.024,31.654h-2.248v-9.215h2.248V31.654z"/>
			<path fill="#FFFFFF" d="M98.857,29.182l1.798-6.743h2.472l-3.146,9.215h-2.472l-2.922-9.215h2.473L98.857,29.182z"/>
			<path fill="#FFFFFF" d="M109.42,27.721h-3.483v2.248h4.158v1.686h-6.293v-9.215h6.293v1.686h-4.158v1.91h3.483V27.721z"/>
			<path fill="#FFFFFF" d="M114.477,28.396h-1.236v3.259h-2.248v-9.215h3.596c1.124,0,1.911,0.225,2.584,0.674
				c0.563,0.449,0.899,1.124,0.899,2.023c0,0.674-0.112,1.124-0.337,1.573c-0.225,0.45-0.674,0.787-1.236,1.012l1.91,3.708v0.113
				h-2.36L114.477,28.396z M113.24,26.709h1.349c0.45,0,0.787-0.112,0.899-0.337c0.225-0.225,0.337-0.562,0.337-0.899
				c0-0.449-0.112-0.674-0.337-0.899c-0.225-0.225-0.562-0.337-0.899-0.337h-1.349V26.709z"/>
			<path fill="#FFFFFF" d="M123.804,29.182c0-0.337-0.113-0.562-0.337-0.787c-0.225-0.225-0.674-0.336-1.236-0.562
				c-0.563-0.225-1.012-0.337-1.461-0.562c-1.236-0.562-1.798-1.348-1.798-2.36c0-0.562,0.112-1.011,0.449-1.348
				c0.337-0.337,0.674-0.674,1.236-0.899s1.124-0.337,1.798-0.337c0.674,0,1.236,0.112,1.798,0.337
				c0.562,0.224,0.899,0.562,1.236,1.011s0.45,0.899,0.45,1.46h-2.248c0-0.337-0.112-0.674-0.337-0.899s-0.562-0.337-0.899-0.337
				c-0.45,0-0.674,0.112-0.899,0.225c-0.225,0.225-0.337,0.45-0.337,0.674s0.112,0.45,0.337,0.674
				c0.225,0.224,0.674,0.337,1.349,0.562c0.674,0.225,1.124,0.45,1.573,0.674c1.011,0.562,1.461,1.348,1.461,2.36
				c0,0.786-0.337,1.46-0.899,1.91c-0.562,0.449-1.461,0.674-2.472,0.674c-0.787,0-1.461-0.113-2.023-0.45
				c-0.562-0.225-1.011-0.674-1.349-1.124c-0.337-0.449-0.449-1.011-0.449-1.573h2.248c0,0.45,0.112,0.899,0.336,1.124
				c0.225,0.225,0.674,0.336,1.237,0.336c0.337,0,0.674-0.112,0.899-0.224C123.692,29.631,123.804,29.52,123.804,29.182z"/>
			<path fill="#FFFFFF" d="M129.31,31.654h-2.247v-9.215h2.247V31.654z"/>
			<path fill="#FFFFFF" d="M130.771,31.654v-9.215h2.922c0.787,0,1.573,0.225,2.248,0.562c0.674,0.337,1.124,0.899,1.574,1.573
				c0.337,0.675,0.562,1.461,0.562,2.248v0.449c0,0.899-0.225,1.574-0.562,2.248c-0.338,0.674-0.899,1.236-1.461,1.573
				c-0.674,0.337-1.348,0.562-2.135,0.562L130.771,31.654L130.771,31.654z M132.907,24.125v5.731h0.787
				c0.674,0,1.124-0.225,1.461-0.674c0.337-0.449,0.562-1.124,0.562-2.023v-0.449c0-0.899-0.225-1.574-0.562-2.023
				c-0.337-0.45-0.787-0.674-1.461-0.674h-0.787V24.125z"/>
			<path fill="#FFFFFF" d="M143.695,29.969h-3.034l-0.562,1.686h-2.36l3.372-9.215h2.135l3.372,9.215h-2.36L143.695,29.969z
				 M141.223,28.171h2.023l-1.011-3.147L141.223,28.171z"/>
			<path fill="#FFFFFF" d="M147.179,31.654v-9.215h2.921c0.787,0,1.574,0.225,2.248,0.562c0.674,0.337,1.124,0.899,1.574,1.573
				c0.337,0.675,0.562,1.461,0.562,2.248v0.449c0,0.899-0.225,1.574-0.562,2.248s-0.899,1.236-1.461,1.573
				c-0.674,0.337-1.348,0.562-2.135,0.562L147.179,31.654L147.179,31.654z M149.427,24.125v5.731h0.787
				c0.674,0,1.124-0.225,1.461-0.674c0.337-0.449,0.562-1.124,0.562-2.023v-0.449c0-0.899-0.225-1.574-0.562-2.023
				c-0.337-0.45-0.787-0.674-1.461-0.674h-0.787V24.125z"/>
			<path fill="#FFFFFF" d="M165.946,31.654h-2.247l-3.259-5.731v5.731h-2.247v-9.215h2.247l3.259,5.731v-5.731h2.247V31.654z"/>
			<path fill="#FFFFFF" d="M172.464,29.969h-3.034l-0.562,1.686h-2.359l3.371-9.215h2.135l3.371,9.215h-2.36L172.464,29.969z
				 M169.992,28.171h2.022l-1.011-3.147L169.992,28.171z"/>
			<path fill="#FFFFFF" d="M182.915,28.508c0,0.674-0.225,1.236-0.562,1.686c-0.337,0.449-0.787,0.899-1.349,1.123
				c-0.562,0.226-1.236,0.45-1.91,0.45c-1.236,0-2.135-0.45-2.81-1.236c-0.674-0.787-1.011-1.911-1.011-3.371v-0.45
				c0-0.899,0.112-1.686,0.449-2.36c0.337-0.674,0.787-1.236,1.349-1.573c0.562-0.337,1.236-0.562,2.023-0.562
				c1.124,0,2.022,0.337,2.697,0.899c0.674,0.562,1.012,1.349,1.124,2.473h-2.248c0-0.563-0.112-1.012-0.449-1.237
				c-0.225-0.225-0.674-0.337-1.236-0.337c-0.563,0-1.012,0.225-1.236,0.674s-0.337,1.124-0.45,2.022v0.674
				c0,1.012,0.113,1.686,0.337,2.135c0.225,0.45,0.674,0.674,1.236,0.674c0.563,0,0.899-0.112,1.124-0.337
				c0.225-0.225,0.45-0.674,0.45-1.124h2.472L182.915,28.508L182.915,28.508z"/>
			<path fill="#FFFFFF" d="M186.174,31.654h-2.248v-9.215h2.248V31.654z"/>
			<path fill="#FFFFFF" d="M195.277,27.271c0,0.899-0.113,1.687-0.45,2.361c-0.336,0.673-0.787,1.236-1.46,1.573
				c-0.562,0.337-1.348,0.562-2.135,0.562c-0.787,0-1.461-0.224-2.135-0.562c-0.562-0.337-1.124-0.899-1.461-1.573
				c-0.336-0.674-0.562-1.461-0.562-2.361v-0.562c0-0.899,0.113-1.686,0.45-2.36c0.337-0.674,0.787-1.236,1.461-1.573
				c0.562-0.337,1.349-0.562,2.135-0.562s1.46,0.225,2.135,0.562c0.563,0.337,1.124,0.899,1.461,1.573
				c0.337,0.674,0.563,1.461,0.563,2.36V27.271z M193.029,26.822c0-0.899-0.112-1.573-0.45-2.135
				c-0.337-0.449-0.787-0.674-1.348-0.674c-1.124,0-1.686,0.786-1.798,2.472v0.674c0,0.898,0.112,1.573,0.449,2.135
				c0.337,0.45,0.787,0.674,1.349,0.674c0.562,0,1.011-0.225,1.348-0.674c0.337-0.449,0.45-1.124,0.45-2.023V26.822z"/>
			<path fill="#FFFFFF" d="M203.93,31.654h-2.248l-3.259-5.731v5.731h-2.248v-9.215h2.248l3.259,5.731v-5.731h2.248V31.654z"/>
			<path fill="#FFFFFF" d="M210.448,29.969h-3.035l-0.562,1.686h-2.36l3.372-9.215h2.135l3.371,9.215h-2.36L210.448,29.969z
				 M207.975,28.171h2.023l-1.011-3.147L207.975,28.171z"/>
			<path fill="#FFFFFF" d="M216.179,29.969H220v1.686h-6.068V22.44h2.248V29.969z"/>
			<path fill="#FFFFFF" d="M74.133,44.803v-9.216h2.921c0.787,0,1.574,0.225,2.248,0.563c0.674,0.337,1.124,0.899,1.573,1.573
				c0.337,0.674,0.563,1.46,0.563,2.247v0.45c0,0.9-0.225,1.573-0.563,2.248c-0.336,0.674-0.899,1.236-1.46,1.573
				c-0.674,0.337-1.349,0.563-2.135,0.563H74.133L74.133,44.803z M76.381,37.273v5.732h0.787c0.674,0,1.124-0.225,1.461-0.674
				c0.337-0.45,0.562-1.124,0.562-2.023v-0.45c0-0.899-0.225-1.573-0.562-2.023c-0.337-0.45-0.787-0.674-1.461-0.674h-0.787V37.273z
				"/>
			<path fill="#FFFFFF" d="M88.068,40.869h-3.484v2.248h4.158v1.686h-6.293v-9.216h6.293v1.687h-4.158v1.91h3.484V40.869z"/>
			<path fill="#FFFFFF" d="M94.586,43.117h3.821v1.686h-6.068v-9.216h2.247V43.117L94.586,43.117z"/>
			<path fill="#FFFFFF" d="M104.7,43.005h-3.034l-0.562,1.798h-2.36l3.372-9.216h2.135l3.371,9.216h-2.36L104.7,43.005z
				 M102.115,41.319h2.023l-1.011-3.146L102.115,41.319z"/>
			<path fill="#FFFFFF" d="M112.678,42.331c0-0.337-0.112-0.562-0.336-0.787c-0.225-0.225-0.674-0.337-1.237-0.562
				c-0.562-0.225-1.011-0.337-1.461-0.563c-1.236-0.562-1.797-1.348-1.797-2.36c0-0.562,0.112-1.012,0.449-1.349
				c0.337-0.337,0.674-0.674,1.236-0.899c0.563-0.225,1.124-0.337,1.798-0.337s1.236,0.113,1.798,0.337
				c0.563,0.225,0.899,0.562,1.236,1.011s0.45,0.899,0.45,1.46h-2.248c0-0.336-0.112-0.673-0.337-0.898
				c-0.225-0.225-0.562-0.337-0.899-0.337c-0.449,0-0.674,0.113-0.899,0.225c-0.224,0.225-0.336,0.45-0.336,0.674
				s0.112,0.45,0.336,0.674c0.225,0.225,0.674,0.337,1.349,0.562s1.124,0.45,1.573,0.674c1.011,0.563,1.461,1.349,1.461,2.36
				c0,0.787-0.337,1.461-0.899,1.911c-0.562,0.449-1.461,0.674-2.473,0.674c-0.787,0-1.46-0.113-2.022-0.45
				c-0.563-0.224-1.012-0.674-1.349-1.124c-0.337-0.45-0.45-1.012-0.45-1.573h2.248c0,0.449,0.112,0.899,0.337,1.124
				c0.224,0.225,0.674,0.337,1.236,0.337c0.337,0,0.674-0.112,0.9-0.225C112.566,42.892,112.678,42.667,112.678,42.331z"/>
			<path fill="#FFFFFF" d="M123.916,43.005h-3.034l-0.562,1.686h-2.36l3.371-9.215h2.135l3.371,9.215h-2.36L123.916,43.005z
				 M121.445,41.319h2.023l-1.012-3.146L121.445,41.319z"/>
			<path fill="#FFFFFF" d="M130.771,41.543h-1.236v3.26h-2.248v-9.216h3.597c1.124,0,1.91,0.225,2.584,0.674
				c0.563,0.449,0.899,1.124,0.899,2.023c0,0.674-0.112,1.123-0.337,1.573c-0.225,0.45-0.674,0.787-1.236,1.011l1.911,3.708v0.112
				h-2.36L130.771,41.543z M129.648,39.858h1.349c0.449,0,0.786-0.113,0.899-0.337c0.225-0.225,0.337-0.562,0.337-0.899
				c0-0.45-0.113-0.674-0.337-0.899c-0.225-0.225-0.562-0.337-0.899-0.337h-1.349V39.858z"/>
			<path fill="#FFFFFF" d="M142.796,37.273h-2.809v7.53h-2.248v-7.53h-2.697v-1.686h7.642v1.686H142.796z"/>
			<path fill="#FFFFFF" d="M149.202,40.869h-3.484v2.248h4.158v1.686h-6.293v-9.216h6.406v1.687h-4.158v1.91h3.484v1.686
				L149.202,40.869L149.202,40.869z"/>
			<path fill="#FFFFFF" d="M155.27,42.331c0-0.337-0.112-0.562-0.337-0.787c-0.224-0.225-0.674-0.337-1.236-0.562
				c-0.563-0.225-1.012-0.337-1.461-0.563c-1.236-0.562-1.798-1.348-1.798-2.36c0-0.562,0.112-1.012,0.449-1.349
				c0.337-0.337,0.674-0.674,1.236-0.899c0.562-0.225,1.124-0.337,1.798-0.337c0.674,0,1.236,0.113,1.798,0.337
				s0.899,0.562,1.236,1.011s0.45,0.899,0.45,1.46h-2.248c0-0.336-0.112-0.673-0.337-0.898c-0.225-0.225-0.562-0.337-0.899-0.337
				c-0.45,0-0.674,0.113-0.899,0.225c-0.225,0.225-0.337,0.45-0.337,0.674s0.113,0.45,0.337,0.674s0.674,0.337,1.349,0.562
				c0.674,0.225,1.124,0.45,1.573,0.674c1.011,0.563,1.46,1.349,1.46,2.36c0,0.787-0.337,1.461-0.899,1.911
				c-0.562,0.449-1.461,0.674-2.472,0.674c-0.787,0-1.461-0.113-2.023-0.45c-0.562-0.224-1.011-0.674-1.348-1.124
				c-0.337-0.45-0.45-1.012-0.45-1.573h2.248c0,0.449,0.112,0.899,0.337,1.124s0.674,0.337,1.236,0.337
				c0.337,0,0.674-0.112,0.899-0.225C155.158,42.892,155.27,42.667,155.27,42.331z"/>
		</g>
	</g>
</g>
</svg>
